<svg id="ic_unclick" xmlns="http://www.w3.org/2000/svg" width="22.846" height="24.922" viewBox="0 0 22.846 24.922">
  <g id="Path_77" data-name="Path 77" transform="translate(0 9.167)" fill="none">
    <path d="M5.212,0H17.634a5.2,5.2,0,0,1,5.212,5.194v5.367a5.2,5.2,0,0,1-5.212,5.194H5.212A5.2,5.2,0,0,1,0,10.561V5.194A5.2,5.2,0,0,1,5.212,0Z" stroke="none"/>
    <path d="M 5.211910247802734 1.699997901916504 C 3.275440216064453 1.699997901916504 1.700000762939453 3.267457962036133 1.700000762939453 5.194128036499023 L 1.700000762939453 10.56140804290771 C 1.700000762939453 12.48807811737061 3.275440216064453 14.05553817749023 5.211910247802734 14.05553817749023 L 17.63360977172852 14.05553817749023 C 19.5700798034668 14.05553817749023 21.1455192565918 12.48807811737061 21.1455192565918 10.56140804290771 L 21.1455192565918 5.194128036499023 C 21.1455192565918 3.267457962036133 19.5700798034668 1.699997901916504 17.63360977172852 1.699997901916504 L 5.211910247802734 1.699997901916504 M 5.211910247802734 -1.9073486328125e-06 L 17.63360977172852 -1.9073486328125e-06 C 20.51206970214844 -1.9073486328125e-06 22.84552001953125 2.325488090515137 22.84552001953125 5.194128036499023 L 22.84552001953125 10.56140804290771 C 22.84552001953125 13.43003845214844 20.51206970214844 15.75553798675537 17.63360977172852 15.75553798675537 L 5.211910247802734 15.75553798675537 C 2.333450317382813 15.75553798675537 0 13.43003845214844 0 10.56140804290771 L 0 5.194128036499023 C 0 2.325488090515137 2.333450317382813 -1.9073486328125e-06 5.211910247802734 -1.9073486328125e-06 Z" stroke="none" fill="#93a4b8"/>
  </g>
  <path id="Union_1" data-name="Union 1" d="M1.112,10.22V3.949A2.093,2.093,0,0,1,0,2.086,2.054,2.054,0,0,1,2.021,0,2.054,2.054,0,0,1,4.043,2.086,2.093,2.093,0,0,1,2.931,3.949V10.22Z" transform="matrix(0.966, 0.259, -0.259, 0.966, 16.61, 0)" fill="#93a4b8"/>
  <path id="Union_2" data-name="Union 2" d="M.8,0V4.337a1.448,1.448,0,1,0,1.3,0V0Z" transform="matrix(-0.966, 0.259, -0.259, -0.966, 8.953, 9.83)" fill="#93a4b8"/>
  <circle id="Ellipse_16" data-name="Ellipse 16" cx="1.719" cy="1.719" r="1.719" transform="translate(13.7 13.359)" fill="#93a4b8"/>
  <circle id="Ellipse_17" data-name="Ellipse 17" cx="1.719" cy="1.719" r="1.719" transform="translate(5.423 13.359)" fill="#93a4b8"/>
  <path id="Path_76" data-name="Path 76" d="M8.217,94c0,.474-1.839.858-4.108.858S0,94.474,0,94" transform="translate(7.215 -73.633)" fill="#93a4b8" stroke="#93a4b8" stroke-linecap="round" stroke-width="1"/>
</svg>
