<svg id="Logout" xmlns="http://www.w3.org/2000/svg" width="38" height="36" viewBox="0 0 38 36">
  <g id="Path_2925" data-name="Path 2925" fill="#f3f3f3">
    <path d="M 20 35.5 L 18 35.5 C 13.32557964324951 35.5 8.930939674377441 33.67967987060547 5.625629901885986 30.37437057495117 C 2.320319890975952 27.06905937194824 0.5 22.67441940307617 0.5 18 C 0.5 13.32557964324951 2.320319890975952 8.930939674377441 5.625629901885986 5.625629901885986 C 8.930939674377441 2.320319890975952 13.32557964324951 0.5 18 0.5 L 20 0.5 C 24.67441940307617 0.5 29.06905937194824 2.320319890975952 32.37437057495117 5.625629901885986 C 35.67967987060547 8.930939674377441 37.5 13.32557964324951 37.5 18 C 37.5 22.67441940307617 35.67967987060547 27.06905937194824 32.37437057495117 30.37437057495117 C 29.06905937194824 33.67967987060547 24.67441940307617 35.5 20 35.5 Z" stroke="none"/>
    <path d="M 18 1 C 13.45912933349609 1 9.190059661865234 2.768310546875 5.979179382324219 5.979179382324219 C 2.768310546875 9.190059661865234 1 13.45912933349609 1 18 C 1 22.54087066650391 2.768310546875 26.80994033813477 5.979179382324219 30.02082061767578 C 9.190059661865234 33.231689453125 13.45912933349609 35 18 35 L 20 35 C 24.54087066650391 35 28.80994033813477 33.231689453125 32.02082061767578 30.02082061767578 C 35.231689453125 26.80994033813477 37 22.54087066650391 37 18 C 37 13.45912933349609 35.231689453125 9.190059661865234 32.02082061767578 5.979179382324219 C 28.80994033813477 2.768310546875 24.54087066650391 1 20 1 L 18 1 M 18 0 L 20 0 C 29.94112968444824 0 38 8.058870315551758 38 18 C 38 27.94112968444824 29.94112968444824 36 20 36 L 18 36 C 8.058870315551758 36 0 27.94112968444824 0 18 C 0 8.058870315551758 8.058870315551758 0 18 0 Z" stroke="none" fill="#54585a"/>
  </g>
  <g id="logout_7_" data-name="logout (7)" transform="translate(11 -46.95)">
    <g id="Group_2460" data-name="Group 2460" transform="translate(0 58.95)">
      <path id="Path_2950" data-name="Path 2950" d="M0,61.018v8.265A2.072,2.072,0,0,0,2.068,71.35h6.68a2.072,2.072,0,0,0,2.068-2.068V67.944a.41.41,0,0,0-.819,0v1.339a1.255,1.255,0,0,1-1.252,1.252H2.068A1.255,1.255,0,0,1,.816,69.282V61.018a1.255,1.255,0,0,1,1.252-1.252h6.68A1.255,1.255,0,0,1,10,61.018v1.339a.41.41,0,0,0,.819,0V61.018A2.072,2.072,0,0,0,8.751,58.95H2.068A2.07,2.07,0,0,0,0,61.018Z" transform="translate(0 -58.95)" fill="#54585a"/>
      <path id="Path_2951" data-name="Path 2951" d="M212.264,155.233a.41.41,0,0,0,.579,0l2.794-2.794a.406.406,0,0,0,0-.576l-2.794-2.794a.407.407,0,0,0-.576.576l2.1,2.1H206.71a.41.41,0,1,0,0,.819h7.652l-2.1,2.1A.4.4,0,0,0,212.264,155.233Z" transform="translate(-199.431 -145.953)" fill="#54585a"/>
    </g>
  </g>
</svg>
