<svg id="web" xmlns="http://www.w3.org/2000/svg" width="35.088" height="35.089" viewBox="0 0 35.088 35.089">
  <g id="logotype_1_" data-name="logotype (1)">
    <path id="Path_3384" data-name="Path 3384" d="M17.544,0A17.544,17.544,0,1,1,0,17.544,17.545,17.545,0,0,1,17.544,0Z" fill="#00a8b0"/>
    <path id="Path_3385" data-name="Path 3385" d="M77.059,63.708H66.906a3.2,3.2,0,0,0-3.2,3.2V77.06a3.2,3.2,0,0,0,3.2,3.2H77.06a3.2,3.2,0,0,0,3.2-3.2V66.906A3.2,3.2,0,0,0,77.059,63.708Zm1.007,1.85h.362V68.3l-2.767.009-.009-2.747Zm-6.083,3.656a2.769,2.769,0,1,1-2.769,2.77A2.777,2.777,0,0,1,71.983,69.214Zm6.461,7.645a1.587,1.587,0,0,1-1.587,1.586H67.077A1.587,1.587,0,0,1,65.49,76.86V70.141h2.3a5.275,5.275,0,0,0-.334,1.843,4.525,4.525,0,1,0,9.05,0,5.3,5.3,0,0,0-.333-1.843h2.27V76.86Z" transform="translate(-54.439 -54.439)" fill="#26a6d1"/>
  </g>
  <g id="world-wide" transform="translate(8.187 8.187)">
    <path id="Path_3386" data-name="Path 3386" d="M231.816,348.293c1.453-.206,2.727-1.723,3.529-3.964a17.26,17.26,0,0,0-3.529-.416Zm0,0" transform="translate(-221.973 -329.287)" fill="#fff"/>
    <path id="Path_3387" data-name="Path 3387" d="M279.794,361.054c.086-.025.172-.05.256-.077s.142-.048.213-.073.167-.059.25-.09.141-.055.211-.084l.242-.1c.07-.031.139-.063.208-.1s.157-.075.234-.114l.2-.106q.114-.061.227-.125c.068-.038.133-.077.2-.117l.22-.136c.065-.041.13-.084.194-.127s.142-.1.213-.149l.188-.136c.068-.052.138-.107.206-.161s.121-.1.18-.146.133-.115.2-.173.116-.1.172-.155.128-.123.191-.185.11-.107.164-.163l.03-.032a11.423,11.423,0,0,0-2.328-.9,8.427,8.427,0,0,1-2.171,3.525l.083-.02C279.651,361.1,279.723,361.075,279.794,361.054Zm0,0" transform="translate(-267.629 -342.404)" fill="#fff"/>
    <path id="Path_3388" data-name="Path 3388" d="M340.317,231.684h-4.073a17.612,17.612,0,0,1-.686,4.7,11.81,11.81,0,0,1,2.578,1.026A9.49,9.49,0,0,0,340.317,231.684Zm0,0" transform="translate(-321.311 -221.832)" fill="#fff"/>
    <path id="Path_3389" data-name="Path 3389" d="M231.816,113.474h4.411a16.991,16.991,0,0,0-.669-4.532,17.891,17.891,0,0,1-3.743.446Zm0,0" transform="translate(-221.973 -104.318)" fill="#fff"/>
    <path id="Path_3390" data-name="Path 3390" d="M231.816.316V4.7a17.263,17.263,0,0,0,3.529-.415c-.8-2.24-2.076-3.757-3.529-3.964Zm0,0" transform="translate(-221.973 -0.316)" fill="#fff"/>
    <path id="Path_3391" data-name="Path 3391" d="M231.816,235.77a17.9,17.9,0,0,1,3.743.447,17,17,0,0,0,.669-4.532h-4.411Zm0,0" transform="translate(-221.973 -221.834)" fill="#fff"/>
    <path id="Path_3392" data-name="Path 3392" d="M338.136,80.844a11.813,11.813,0,0,1-2.578,1.026,17.619,17.619,0,0,1,.686,4.7h4.073A9.493,9.493,0,0,0,338.136,80.844Zm0,0" transform="translate(-321.311 -77.415)" fill="#fff"/>
    <path id="Path_3393" data-name="Path 3393" d="M283.958,9.426l-.029-.032c-.054-.055-.11-.109-.164-.163s-.126-.125-.191-.185-.114-.1-.172-.154-.132-.117-.2-.174-.119-.1-.179-.145-.138-.11-.208-.162-.124-.091-.186-.136-.142-.1-.215-.151-.128-.085-.193-.126-.147-.094-.222-.138-.132-.078-.2-.116-.152-.086-.229-.127-.136-.071-.2-.1-.157-.077-.238-.115-.137-.064-.207-.095-.162-.068-.243-.1-.14-.057-.21-.084-.166-.061-.25-.09-.141-.05-.213-.073-.17-.053-.257-.078c-.071-.021-.142-.042-.213-.061l-.083-.02a8.429,8.429,0,0,1,2.171,3.525,11.4,11.4,0,0,0,2.33-.9Zm0,0" transform="translate(-267.592 -6.522)" fill="#fff"/>
    <path id="Path_3394" data-name="Path 3394" d="M0,86.569H4.073a17.623,17.623,0,0,1,.686-4.7,11.8,11.8,0,0,1-2.578-1.026A9.49,9.49,0,0,0,0,86.569Zm0,0" transform="translate(0 -77.415)" fill="#fff"/>
    <path id="Path_3395" data-name="Path 3395" d="M136.224,348.293v-4.379a17.265,17.265,0,0,0-3.529.416C133.5,346.57,134.771,348.087,136.224,348.293Zm0,0" transform="translate(-127.061 -329.287)" fill="#fff"/>
    <path id="Path_3396" data-name="Path 3396" d="M116.332,231.684h-4.411a16.987,16.987,0,0,0,.669,4.532,17.882,17.882,0,0,1,3.743-.446Zm0,0" transform="translate(-107.169 -221.834)" fill="#fff"/>
    <path id="Path_3397" data-name="Path 3397" d="M136.224.316c-1.453.206-2.728,1.723-3.529,3.964a17.24,17.24,0,0,0,3.529.415Zm0,0" transform="translate(-127.061 -0.316)" fill="#fff"/>
    <path id="Path_3398" data-name="Path 3398" d="M116.333,109.388a17.892,17.892,0,0,1-3.743-.446,16.987,16.987,0,0,0-.669,4.532h4.411Zm0,0" transform="translate(-107.169 -104.317)" fill="#fff"/>
    <path id="Path_3399" data-name="Path 3399" d="M66.688,6.789l-.083.02c-.072.019-.143.041-.215.061s-.17.05-.255.077-.143.048-.214.073-.166.059-.249.09-.141.055-.211.084l-.241.1c-.07.031-.139.063-.208.1s-.157.075-.234.114l-.2.106q-.114.061-.227.125t-.2.117c-.074.044-.147.09-.219.136s-.13.084-.194.127-.142.1-.213.149l-.188.136c-.069.052-.136.107-.206.161s-.121.1-.18.146-.133.114-.2.172-.117.1-.173.156-.127.123-.19.185-.11.107-.164.163l-.03.032a11.4,11.4,0,0,0,2.327.9A8.426,8.426,0,0,1,66.688,6.789Zm0,0" transform="translate(-59.551 -6.514)" fill="#fff"/>
    <path id="Path_3400" data-name="Path 3400" d="M62.421,358.652c.063.062.126.125.191.186s.114.1.172.154.132.117.2.174.119.1.179.145.136.11.208.163.123.09.186.136.143.1.215.151.128.085.193.126.147.093.222.138.132.078.2.116.152.086.229.126.136.071.2.105.157.078.238.115.137.063.207.094.162.068.243.1.14.057.21.084.166.061.25.09.141.05.213.073.17.053.257.078c.071.021.142.042.213.061l.083.02a8.431,8.431,0,0,1-2.171-3.525,11.407,11.407,0,0,0-2.327.9l.029.032C62.311,358.545,62.366,358.6,62.421,358.652Zm0,0" transform="translate(-59.588 -342.356)" fill="#fff"/>
    <path id="Path_3401" data-name="Path 3401" d="M2.181,237.408a11.814,11.814,0,0,1,2.578-1.026,17.622,17.622,0,0,1-.686-4.7H0A9.492,9.492,0,0,0,2.181,237.408Zm0,0" transform="translate(0 -221.831)" fill="#fff"/>
  </g>
</svg>
