<svg id="Language" xmlns="http://www.w3.org/2000/svg" width="38" height="36" viewBox="0 0 38 36">
  <g id="Path_2924" data-name="Path 2924" fill="#f3f3f3">
    <path d="M 20 35.5 L 18 35.5 C 13.32557964324951 35.5 8.930939674377441 33.67967987060547 5.625629901885986 30.37437057495117 C 2.320319890975952 27.06905937194824 0.5 22.67441940307617 0.5 18 C 0.5 13.32557964324951 2.320319890975952 8.930939674377441 5.625629901885986 5.625629901885986 C 8.930939674377441 2.320319890975952 13.32557964324951 0.5 18 0.5 L 20 0.5 C 24.67441940307617 0.5 29.06905937194824 2.320319890975952 32.37437057495117 5.625629901885986 C 35.67967987060547 8.930939674377441 37.5 13.32557964324951 37.5 18 C 37.5 22.67441940307617 35.67967987060547 27.06905937194824 32.37437057495117 30.37437057495117 C 29.06905937194824 33.67967987060547 24.67441940307617 35.5 20 35.5 Z" stroke="none"/>
    <path d="M 18 1 C 13.45912933349609 1 9.190059661865234 2.768310546875 5.979179382324219 5.979179382324219 C 2.768310546875 9.190059661865234 1 13.45912933349609 1 18 C 1 22.54087066650391 2.768310546875 26.80994033813477 5.979179382324219 30.02082061767578 C 9.190059661865234 33.231689453125 13.45912933349609 35 18 35 L 20 35 C 24.54087066650391 35 28.80994033813477 33.231689453125 32.02082061767578 30.02082061767578 C 35.231689453125 26.80994033813477 37 22.54087066650391 37 18 C 37 13.45912933349609 35.231689453125 9.190059661865234 32.02082061767578 5.979179382324219 C 28.80994033813477 2.768310546875 24.54087066650391 1 20 1 L 18 1 M 18 0 L 20 0 C 29.94112968444824 0 38 8.058870315551758 38 18 C 38 27.94112968444824 29.94112968444824 36 20 36 L 18 36 C 8.058870315551758 36 0 27.94112968444824 0 18 C 0 8.058870315551758 8.058870315551758 0 18 0 Z" stroke="none" fill="#54585a"/>
  </g>
  <g id="english" transform="translate(12 -63)">
    <g id="Group_2459" data-name="Group 2459" transform="translate(0 76)">
      <g id="Group_2458" data-name="Group 2458" transform="translate(0 0)">
        <path id="Path_2947" data-name="Path 2947" d="M221.039,182.764c-.2,0-.4.073-.4.243v1.76l-.839-1.6c-.2-.378-.305-.4-.6-.4-.2,0-.4.078-.4.249V186.3c0,.166.2.249.4.249s.4-.083.4-.249v-1.76l.984,1.791a.452.452,0,0,0,.45.217c.2,0,.4-.083.4-.249v-3.293C221.443,182.837,221.241,182.764,221.039,182.764Z" transform="translate(-213.124 -179.996)" fill="#54585a" stroke="#f3f3f3" stroke-width="0.2"/>
        <path id="Path_2948" data-name="Path 2948" d="M113.353,183.468c.155,0,.243-.166.243-.357,0-.166-.073-.347-.243-.347H111.51c-.176,0-.352.083-.352.249V186.3c0,.166.176.249.352.249h1.843c.171,0,.243-.181.243-.347,0-.192-.088-.357-.243-.357h-1.388v-.88h.777c.171,0,.243-.166.243-.305,0-.166-.088-.316-.243-.316h-.777v-.875Z" transform="translate(-108.276 -179.996)" fill="#54585a" stroke="#f3f3f3" stroke-width="0.2"/>
        <path id="Path_2949" data-name="Path 2949" d="M11.359,80.667l1.865-3.926A.519.519,0,0,0,12.756,76H.519A.519.519,0,0,0,0,76.519v8.3a.519.519,0,0,0,.519.519H12.756a.519.519,0,0,0,.468-.741ZM1.037,84.3V77.037h10.9l-1.618,3.407a.519.519,0,0,0,0,.445L11.935,84.3Z" transform="translate(0 -76)" fill="#54585a" stroke="#f3f3f3" stroke-width="0.2"/>
      </g>
    </g>
  </g>
</svg>
