<svg id="About" xmlns="http://www.w3.org/2000/svg" width="38" height="36" viewBox="0 0 38 36">
  <g id="Path_2925" data-name="Path 2925" fill="#f3f3f3">
    <path d="M 20 35.5 L 18 35.5 C 13.32557964324951 35.5 8.930939674377441 33.67967987060547 5.625629901885986 30.37437057495117 C 2.320319890975952 27.06905937194824 0.5 22.67441940307617 0.5 18 C 0.5 13.32557964324951 2.320319890975952 8.930939674377441 5.625629901885986 5.625629901885986 C 8.930939674377441 2.320319890975952 13.32557964324951 0.5 18 0.5 L 20 0.5 C 24.67441940307617 0.5 29.06905937194824 2.320319890975952 32.37437057495117 5.625629901885986 C 35.67967987060547 8.930939674377441 37.5 13.32557964324951 37.5 18 C 37.5 22.67441940307617 35.67967987060547 27.06905937194824 32.37437057495117 30.37437057495117 C 29.06905937194824 33.67967987060547 24.67441940307617 35.5 20 35.5 Z" stroke="none"/>
    <path d="M 18 1 C 13.45912933349609 1 9.190059661865234 2.768310546875 5.979179382324219 5.979179382324219 C 2.768310546875 9.190059661865234 1 13.45912933349609 1 18 C 1 22.54087066650391 2.768310546875 26.80994033813477 5.979179382324219 30.02082061767578 C 9.190059661865234 33.231689453125 13.45912933349609 35 18 35 L 20 35 C 24.54087066650391 35 28.80994033813477 33.231689453125 32.02082061767578 30.02082061767578 C 35.231689453125 26.80994033813477 37 22.54087066650391 37 18 C 37 13.45912933349609 35.231689453125 9.190059661865234 32.02082061767578 5.979179382324219 C 28.80994033813477 2.768310546875 24.54087066650391 1 20 1 L 18 1 M 18 0 L 20 0 C 29.94112968444824 0 38 8.058870315551758 38 18 C 38 27.94112968444824 29.94112968444824 36 20 36 L 18 36 C 8.058870315551758 36 0 27.94112968444824 0 18 C 0 8.058870315551758 8.058870315551758 0 18 0 Z" stroke="none" fill="#54585a"/>
  </g>
  <g id="center" transform="translate(-2.062 11)">
    <path id="Path_3420" data-name="Path 3420" d="M26.327,13.506h-.908V2.27a.675.675,0,0,0-.674-.674H21V.2A.205.205,0,0,0,20.8,0H17.369a.205.205,0,0,0-.205.2V1.6h-.315a.675.675,0,0,0-.674.674V13.506h-.908a.205.205,0,0,0-.205.205v1.084a.205.205,0,0,0,.205.205h11.06a.205.205,0,0,0,.205-.205V13.711a.205.205,0,0,0-.205-.205ZM17.574.41h3.018V1.6H17.574ZM16.585,2.27a.264.264,0,0,1,.264-.264h7.9a.264.264,0,0,1,.264.264V13.506H22.321V11.28h.512a.205.205,0,0,0,.205-.205v-.922a.205.205,0,0,0-.205-.205H18.761a.205.205,0,0,0-.205.205v.922a.205.205,0,0,0,.205.205h.513v2.227H16.585Zm2.38,8.6v-.512h3.662v.512Zm.717.41H21.91v2.227H19.684Zm6.438,3.311H15.472v-.673h10.65Z" transform="translate(0 0)" fill="#54585a" stroke="#54585a" stroke-width="0.2"/>
    <path id="Path_3421" data-name="Path 3421" d="M34.767,25.156h2.38a.205.205,0,0,0,.205-.205v-1.13a.2.2,0,0,0-.205-.205h-2.38a.205.205,0,0,0-.205.205v1.13A.205.205,0,0,0,34.767,25.156Zm.205-1.13h1.97v.72h-1.97Z" transform="translate(-17.215 -20.848)" fill="#54585a" stroke="#54585a" stroke-width="0.2"/>
    <path id="Path_3422" data-name="Path 3422" d="M34.767,45.961h2.38a.2.2,0,0,0,.205-.205v-1.13a.205.205,0,0,0-.205-.205h-2.38a.205.205,0,0,0-.205.205v1.13A.205.205,0,0,0,34.767,45.961Zm.205-1.13h1.97v.72h-1.97Z" transform="translate(-17.215 -39.215)" fill="#54585a" stroke="#54585a" stroke-width="0.2"/>
    <path id="Path_3423" data-name="Path 3423" d="M37.353,66.562v-1.13a.2.2,0,0,0-.205-.205h-2.38a.205.205,0,0,0-.205.205v1.13a.205.205,0,0,0,.205.205h2.38A.205.205,0,0,0,37.353,66.562Zm-.41-.205h-1.97v-.72h1.97Z" transform="translate(-17.215 -57.583)" fill="#54585a" stroke="#54585a" stroke-width="0.2"/>
    <path id="Path_3424" data-name="Path 3424" d="M69.83,25.156h2.38a.205.205,0,0,0,.205-.205v-1.13a.2.2,0,0,0-.205-.205H69.83a.2.2,0,0,0-.205.205v1.13A.205.205,0,0,0,69.83,25.156Zm.205-1.13h1.97v.72h-1.97Z" transform="translate(-48.169 -20.848)" fill="#54585a" stroke="#54585a" stroke-width="0.2"/>
    <path id="Path_3425" data-name="Path 3425" d="M69.83,45.961h2.38a.2.2,0,0,0,.205-.205v-1.13a.205.205,0,0,0-.205-.205H69.83a.205.205,0,0,0-.205.205v1.13a.2.2,0,0,0,.205.205Zm.205-1.13h1.97v.72h-1.97Z" transform="translate(-48.169 -39.215)" fill="#54585a" stroke="#54585a" stroke-width="0.2"/>
    <path id="Path_3426" data-name="Path 3426" d="M69.83,66.767h2.38a.205.205,0,0,0,.205-.205v-1.13a.2.2,0,0,0-.205-.205H69.83a.2.2,0,0,0-.205.205v1.13A.205.205,0,0,0,69.83,66.767Zm.205-1.13h1.97v.72h-1.97Z" transform="translate(-48.169 -57.583)" fill="#54585a" stroke="#54585a" stroke-width="0.2"/>
  </g>
</svg>
