<svg id="instagram" xmlns="http://www.w3.org/2000/svg" width="35.088" height="35.089" viewBox="0 0 35.088 35.089">
  <path id="Path_3384" data-name="Path 3384" d="M17.544,0A17.544,17.544,0,1,1,0,17.544,17.545,17.545,0,0,1,17.544,0Z" fill="#3f729b"/>
  <path id="Path_3385" data-name="Path 3385" d="M77.059,63.708H66.906a3.2,3.2,0,0,0-3.2,3.2V77.06a3.2,3.2,0,0,0,3.2,3.2H77.06a3.2,3.2,0,0,0,3.2-3.2V66.906A3.2,3.2,0,0,0,77.059,63.708Zm1.007,1.85h.362V68.3l-2.767.009-.009-2.747Zm-6.083,3.656a2.769,2.769,0,1,1-2.769,2.77A2.777,2.777,0,0,1,71.983,69.214Zm6.461,7.645a1.587,1.587,0,0,1-1.587,1.586H67.077A1.587,1.587,0,0,1,65.49,76.86V70.141h2.3a5.275,5.275,0,0,0-.334,1.843,4.525,4.525,0,1,0,9.05,0,5.3,5.3,0,0,0-.333-1.843h2.27V76.86Z" transform="translate(-54.439 -54.439)" fill="#fff"/>
</svg>
