<svg id="call" xmlns="http://www.w3.org/2000/svg" width="28" height="28" viewBox="0 0 28 28">
  <g id="Rectangle_2342" data-name="Rectangle 2342" fill="#f3f3f3" stroke="#54585a" stroke-width="1">
    <rect width="28" height="28" rx="14" stroke="none"/>
    <rect x="0.5" y="0.5" width="27" height="27" rx="13.5" fill="none"/>
  </g>
  <g id="telephone" transform="translate(7.088 8)">
    <path id="Path_2290" data-name="Path 2290" d="M3.424,8.274a13.205,13.205,0,0,0,4.392,3.441,6.836,6.836,0,0,0,2.458.727c.059,0,.116.005.175.005a2.036,2.036,0,0,0,1.578-.678.056.056,0,0,0,.01-.013,6.645,6.645,0,0,1,.5-.516c.121-.116.245-.237.364-.361A1.245,1.245,0,0,0,12.9,9.025l-1.55-1.55a1.255,1.255,0,0,0-.908-.418,1.3,1.3,0,0,0-.918.415L8.6,8.4c-.085-.049-.173-.093-.255-.134a3.189,3.189,0,0,1-.284-.155A9.772,9.772,0,0,1,5.723,5.981a5.628,5.628,0,0,1-.789-1.259c.242-.219.469-.449.689-.673.077-.08.157-.16.237-.24a1.322,1.322,0,0,0,.428-.929,1.312,1.312,0,0,0-.428-.929l-.769-.769c-.09-.09-.175-.178-.263-.268C4.657.74,4.479.56,4.3.4A1.286,1.286,0,0,0,3.4,0a1.324,1.324,0,0,0-.918.4l-.965.965A1.982,1.982,0,0,0,.923,2.633,4.774,4.774,0,0,0,1.281,4.7,12,12,0,0,0,3.424,8.274ZM1.552,2.688a1.364,1.364,0,0,1,.41-.877L2.922.851A.7.7,0,0,1,3.4.632.659.659,0,0,1,3.86.856c.173.16.335.328.511.506l.268.273.769.769a.7.7,0,0,1,.242.482.7.7,0,0,1-.242.482l-.24.242c-.24.242-.464.472-.712.691l-.013.013a.5.5,0,0,0-.129.573l.008.021a6.07,6.07,0,0,0,.905,1.473A10.314,10.314,0,0,0,7.714,8.646a3.692,3.692,0,0,0,.34.186,3.189,3.189,0,0,1,.284.155L8.366,9a.539.539,0,0,0,.25.064A.547.547,0,0,0,9,8.891l.965-.965a.683.683,0,0,1,.472-.23.648.648,0,0,1,.457.23l1.555,1.553a.622.622,0,0,1-.008.972c-.108.116-.222.227-.343.343a7.428,7.428,0,0,0-.539.56,1.416,1.416,0,0,1-1.106.469c-.044,0-.09,0-.134-.005A6.211,6.211,0,0,1,8.1,11.153,12.545,12.545,0,0,1,3.915,7.877,11.49,11.49,0,0,1,1.877,4.485,4.16,4.16,0,0,1,1.552,2.688Z" transform="translate(0 0)" fill="#54585a"/>
  </g>
</svg>
