<svg id="tw" xmlns="http://www.w3.org/2000/svg" width="35.088" height="35.089" viewBox="0 0 35.088 35.089">
  <path id="Path_3382" data-name="Path 3382" d="M17.544,0A17.544,17.544,0,1,1,0,17.544,17.544,17.544,0,0,1,17.544,0Z" fill="#26a6d1"/>
  <path id="Path_3383" data-name="Path 3383" d="M85.415,84.013a9.1,9.1,0,0,1-2.558.682A4.358,4.358,0,0,0,84.816,82.3a9.029,9.029,0,0,1-2.829,1.05,4.511,4.511,0,0,0-3.251-1.364,4.388,4.388,0,0,0-4.452,4.321,4.194,4.194,0,0,0,.115.986,12.775,12.775,0,0,1-9.179-4.516,4.2,4.2,0,0,0-.6,2.172,4.286,4.286,0,0,0,1.981,3.6,4.528,4.528,0,0,1-2.018-.541v.055A4.36,4.36,0,0,0,68.152,92.3a4.605,4.605,0,0,1-1.173.152,4.49,4.49,0,0,1-.837-.078,4.442,4.442,0,0,0,4.161,3,9.1,9.1,0,0,1-5.532,1.85,9.362,9.362,0,0,1-1.063-.06,12.888,12.888,0,0,0,6.828,1.943,12.393,12.393,0,0,0,12.672-12.3l-.013-.56A8.888,8.888,0,0,0,85.415,84.013Z" transform="translate(-56.502 -72.475)" fill="#fff"/>
</svg>
