<svg id="Mail" xmlns="http://www.w3.org/2000/svg" width="28" height="28" viewBox="0 0 28 28">
  <g id="Rectangle_2344" data-name="Rectangle 2344" fill="#f3f3f3" stroke="#53575a" stroke-width="1">
    <rect width="28" height="28" rx="14" stroke="none"/>
    <rect x="0.5" y="0.5" width="27" height="27" rx="13.5" fill="none"/>
  </g>
  <g id="envelope_3_" data-name="envelope (3)" transform="translate(8 -55)">
    <g id="Group_2226" data-name="Group 2226" transform="translate(0 64)">
      <path id="Path_2292" data-name="Path 2292" d="M11,64H1a1,1,0,0,0-1,1v7a1,1,0,0,0,1,1H11a1,1,0,0,0,1-1V65A1,1,0,0,0,11,64ZM1,64.5H11a.476.476,0,0,1,.1.021c-.866.792-3.737,3.419-4.741,4.324a.5.5,0,0,1-.726,0c-1-.905-3.876-3.532-4.741-4.324A.478.478,0,0,1,1,64.5ZM.5,72V65a.483.483,0,0,1,.028-.138c.663.606,2.666,2.439,3.965,3.62C3.2,69.594,1.194,71.494.526,72.131A.482.482,0,0,1,.5,72Zm10.5.5H1a.478.478,0,0,1-.113-.023c.69-.658,2.707-2.569,3.978-3.657l.437.4a1,1,0,0,0,1.4,0l.437-.4c1.272,1.088,3.288,3,3.978,3.657A.478.478,0,0,1,11,72.5Zm.5-.5a.483.483,0,0,1-.026.13c-.668-.637-2.672-2.537-3.966-3.649,1.3-1.181,3.3-3.013,3.965-3.62A.483.483,0,0,1,11.5,65Z" transform="translate(0 -64)" fill="#54585a" stroke="#54585a" stroke-width="0.2"/>
    </g>
  </g>
</svg>
